<?xml version="1.0" standalone="no"?>
<!DOCTYPE svg PUBLIC "-//W3C//DTD SVG 20010904//EN"
 "http://www.w3.org/TR/2001/REC-SVG-20010904/DTD/svg10.dtd">
<svg version="1.0" xmlns="http://www.w3.org/2000/svg"
 width="105.000000pt" height="108.000000pt" viewBox="0 0 105.000000 108.000000"
 preserveAspectRatio="xMidYMid meet">

<g transform="translate(0.000000,108.000000) scale(0.100000,-0.100000)"
fill="#1c35e7" stroke="none">
<path d="M617 922 c-93 -93 -127 -134 -127 -152 0 -35 236 -270 271 -270 31 0
279 244 279 275 0 27 -248 275 -275 275 -13 0 -69 -49 -148 -128z m251 -45
l102 -102 -105 -105 -105 -105 -100 100 c-55 55 -100 104 -100 110 0 10 190
205 200 205 3 0 51 -46 108 -103z"/>
<path d="M50 983 c-36 -13 -40 -34 -40 -210 0 -229 -16 -213 213 -213 134 0
178 3 193 14 17 13 19 30 22 190 l3 176 -25 25 c-25 25 -27 25 -188 24 -90 0
-170 -3 -178 -6z m320 -208 l0 -145 -145 0 -145 0 0 145 0 145 145 0 145 0 0
-145z"/>
<path d="M50 443 c-36 -13 -40 -34 -40 -210 0 -160 2 -175 20 -193 18 -18 33
-20 193 -20 134 0 178 3 193 14 17 13 19 30 22 190 l3 176 -25 25 c-25 25 -27
25 -188 24 -90 0 -170 -3 -178 -6z m320 -208 l0 -145 -145 0 -145 0 0 145 0
145 145 0 145 0 0 -145z"/>
<path d="M590 443 c-36 -13 -40 -34 -40 -210 0 -160 2 -175 20 -193 18 -18 33
-20 193 -20 134 0 178 3 193 14 17 13 19 30 22 190 l3 176 -25 25 c-25 25 -27
25 -188 24 -90 0 -170 -3 -178 -6z m320 -208 l0 -145 -145 0 -145 0 0 145 0
145 145 0 145 0 0 -145z"/>
</g>
</svg>
